<?xml version="1.0" encoding="utf-8"?>
<!-- Generator: Adobe Illustrator 19.2.0, SVG Export Plug-In . SVG Version: 6.00 Build 0)  -->
<svg version="1.1" id="Layer_1" xmlns="http://www.w3.org/2000/svg" xmlns:xlink="http://www.w3.org/1999/xlink" x="0px" y="0px"
	 viewBox="0 0 960 960" style="enable-background:new 0 0 960 960;" xml:space="preserve">
<style type="text/css">
	.st0{fill:#603813;}
	.st1{fill:#754C24;}
	.st2{fill:#8C6239;}
	.st3{fill:#A67C52;}
	.st4{fill:#E6E6E6;}
	.st5{fill:#FBB03B;}
	.st6{fill:none;stroke:#FFFFFF;stroke-width:7.568;stroke-miterlimit:10;}
	.st7{fill:#CCCCCC;}
	.st8{fill:none;stroke:#FBB03B;stroke-width:12.6133;stroke-miterlimit:10;}
	.st9{fill:none;}
</style>
<g>
	<polygon class="st0" points="689.3,595.1 270.7,595.1 270.7,460.8 480,380.7 689.3,460.8 	"/>
	<polygon class="st1" points="689.3,752.3 480,834.5 480,543.1 689.3,460.8 	"/>
	<polygon class="st2" points="270.7,752.3 480,834.5 480,543.1 270.7,460.8 	"/>
	<polygon class="st3" points="768.6,528.5 559.3,609.7 480,543.1 689.3,461.9 	"/>
	<polygon class="st3" points="480,543.1 270.7,461.9 191.4,528.5 400.7,609.7 	"/>
	<polygon class="st3" points="768.6,395.3 559.3,314.1 480,380.7 689.3,461.9 	"/>
	<polygon class="st3" points="480,380.7 270.7,461.9 191.4,395.3 400.7,314.1 	"/>
	<g>
		<circle class="st4" cx="480.8" cy="460.3" r="18.2"/>
		<path class="st5" d="M485.8,171.4c-1.3-0.1-2.7-0.1-4.1-0.1c-1.3,0-2.7,0-4,0.1c-65.9,2.6-115.2,73.7-86.1,132.9l1.3,2.7
			c15.4,26.6,35.7,19.5,35.7,49.8v21.4h106.7v-21.7c0-30.2,18.3-24,33.3-49.4l1.6-3.3C598.7,244.6,551.5,174,485.8,171.4z"/>
		<path class="st6" d="M491.7,370.6c-1.9-17-3.8-34.1-3.1-51.2c0.7-17.1,4.1-34.4,12.3-49.4c2.1-3.8,4.5-7.6,8.1-10.1
			c5.9-4.2,14.6-4.1,20.4,0.3c5.8,4.4,8.3,12.7,5.8,19.6c-2.4,6.7-8.7,11.3-15.2,14.3c-13,6-68.1,6-81,0c-6.5-3-12.8-7.5-15.2-14.3
			c-2.5-6.9,0-15.2,5.8-19.6s14.5-4.5,20.4-0.3c3.5,2.5,6,6.3,8.1,10.1c8.2,15,11.6,32.3,12.3,49.4c0.7,17.1-1.2,34.2-3.1,51.2"/>
		<path class="st7" d="M520.5,460.3h-76.3c-6.1,0-15.7-4.7-15.7-10.6l0,0v-76.9c0-4.1,3.3-7.4,7.4-7.4h92.9c4.1,0,7.4,3.3,7.4,7.4
			v76.6v0.3C536.1,455.6,526.6,460.3,520.5,460.3z"/>
		<path class="st4" d="M536.3,378.2L422,392c-4.9,0.6-9.3-2.9-9.9-7.8l-0.2-1.7c-0.6-4.9,2.9-9.3,7.8-9.9L534,358.9
			c4.9-0.6,9.3,2.9,9.9,7.8l0.2,1.7C544.7,373.2,541.2,377.7,536.3,378.2z"/>
		<path class="st4" d="M540.2,410.4l-114.3,13.8c-4.9,0.6-9.3-2.9-9.9-7.8l-0.2-1.7c-0.6-4.9,2.9-9.3,7.8-9.9L537.9,391
			c4.9-0.6,9.3,2.9,9.9,7.8l0.2,1.7C548.6,405.4,545.1,409.8,540.2,410.4z"/>
		<path class="st4" d="M544.1,442.5l-114.3,13.8c-4.9,0.6-9.3-2.9-9.9-7.8l-0.2-1.7c-0.6-4.9,2.9-9.3,7.8-9.9l114.3-13.8
			c4.9-0.6,9.3,2.9,9.9,7.8l0.2,1.7C552.4,437.5,549,442,544.1,442.5z"/>
		<g>
			<g>
				<g>
					<g>
						<line class="st8" x1="361" y1="365.4" x2="389.3" y2="341.3"/>
						<line class="st8" x1="361" y1="365.4" x2="389.3" y2="341.3"/>
						<path class="st9" d="M377.6,295.3c0,0,0,0.2,0.2,0.5c0.1,0.3,0.3,0.7,0.4,1.3c0.4,1.1,0.9,2.8,1.7,4.7
							c0.7,1.9,1.7,4.1,2.7,6.5c0.6,1.2,1.1,2.3,1.7,3.5s1.3,2.4,1.9,3.6c2.6,4.8,5.7,9.3,8.2,12.6c2.5,3.3,4.3,5.3,4.3,5.3
							l-43.1,36.8c0,0-0.7-0.8-1.8-2.2c-1.2-1.4-2.8-3.4-4.7-5.9c-3.7-5-8.4-11.9-12.4-19.2c-1-1.8-2-3.6-2.9-5.5
							c-0.9-1.8-1.8-3.6-2.6-5.4c-1.6-3.6-3-6.9-4.1-9.8c-1.2-2.9-2-5.4-2.6-7.1c-0.3-0.9-0.5-1.5-0.7-2s-0.2-0.7-0.2-0.7
							L377.6,295.3z"/>
					</g>
					<g>
						<line class="st8" x1="328.4" y1="303.4" x2="364.3" y2="293.8"/>
						<line class="st8" x1="328.4" y1="303.4" x2="364.3" y2="293.8"/>
						<path class="st9" d="M373.7,247.3c0,0-0.1,0.7-0.2,1.9c-0.1,0.6-0.2,1.3-0.3,2.1c0,0.4-0.1,0.9-0.2,1.3c0,0.5-0.1,1-0.1,1.5
							c-0.4,4.1-0.5,9.6-0.2,15.1c0.1,1.4,0.2,2.7,0.3,4.1c0.1,1.3,0.3,2.7,0.4,3.9c0.4,2.5,0.7,4.9,1.2,6.9c0.2,1,0.4,1.9,0.6,2.7
							c0.2,0.8,0.4,1.5,0.5,2.1c0.3,1.2,0.4,1.8,0.4,1.8l-54.8,14.5c0,0-0.3-1-0.7-2.8c-0.2-0.9-0.5-2-0.8-3.2s-0.5-2.6-0.9-4.2
							c-0.7-3.1-1.2-6.7-1.8-10.5c-0.2-1.9-0.4-3.9-0.7-6c-0.2-2-0.3-4.1-0.5-6.2c-0.5-8.3-0.3-16.6,0.2-22.8
							c0.1-0.8,0.1-1.5,0.2-2.2s0.2-1.4,0.2-2c0.1-1.3,0.3-2.4,0.4-3.3c0.2-1.8,0.3-2.8,0.3-2.8L373.7,247.3z"/>
					</g>
					<g>
						<line class="st8" x1="325.9" y1="233.3" x2="362.4" y2="240.2"/>
						<line class="st8" x1="325.9" y1="233.3" x2="362.4" y2="240.2"/>
						<path class="st9" d="M390.9,202.3c0,0-0.1,0.1-0.3,0.4c-0.2,0.3-0.4,0.7-0.7,1.2c-0.3,0.5-0.7,1.1-1.2,1.8
							c-0.2,0.4-0.5,0.7-0.7,1.1c-0.2,0.4-0.5,0.8-0.7,1.3c-2.1,3.5-4.5,8.4-6.6,13.5c-2.1,5-3.6,10.3-4.7,14.2
							c-0.5,2-0.8,3.7-1.1,4.8c-0.3,1.2-0.4,1.8-0.4,1.8L318.8,232c0,0,0.1-1,0.6-2.8c0.4-1.8,0.9-4.3,1.7-7.3c1.6-6,4-14,7.1-21.7
							c3.2-7.7,6.9-15.1,10.1-20.5c0.4-0.7,0.8-1.3,1.1-1.9c0.4-0.6,0.7-1.2,1.1-1.7c0.7-1.1,1.3-2,1.8-2.8s0.9-1.4,1.1-1.8
							c0.3-0.4,0.4-0.6,0.4-0.6L390.9,202.3z"/>
					</g>
					<g>
						<line class="st8" x1="353.8" y1="169" x2="383.7" y2="191"/>
						<line class="st8" x1="353.8" y1="169" x2="383.7" y2="191"/>
						<path class="st9" d="M425.9,169.1c0,0-0.6,0.3-1.6,1s-2.4,1.6-4.2,2.7c-3.3,2.4-7.8,5.6-11.8,9.3s-7.8,7.7-10.4,10.9
							c-0.3,0.4-0.7,0.8-1,1.1c-0.3,0.4-0.6,0.7-0.8,1.1c-0.5,0.7-1,1.2-1.3,1.7c-0.4,0.5-0.7,0.8-0.9,1.1c-0.2,0.2-0.3,0.4-0.3,0.4
							L348,164.8c0,0,0.1-0.2,0.4-0.6c0.3-0.4,0.7-1,1.3-1.7c0.6-0.7,1.2-1.6,2-2.6c0.4-0.5,0.8-1,1.2-1.6c0.5-0.5,0.9-1.1,1.4-1.7
							c3.9-4.8,9.7-10.9,15.8-16.5c6.1-5.6,12.8-10.6,17.9-14.2c2.6-1.7,4.8-3.1,6.3-4.1c1.6-0.9,2.5-1.5,2.5-1.5L425.9,169.1z"/>
					</g>
					<g>
						<line class="st8" x1="406.7" y1="123.1" x2="424.3" y2="155.8"/>
						<line class="st8" x1="406.7" y1="123.1" x2="424.3" y2="155.8"/>
						<path class="st9" d="M471.7,154.3c0,0-0.7,0.1-1.9,0.2c-1.2,0.1-2.9,0.4-4.9,0.6c-1,0.1-2.1,0.4-3.3,0.6
							c-1.1,0.2-2.4,0.4-3.6,0.7s-2.5,0.6-3.8,0.9c-1.3,0.3-2.6,0.8-3.9,1.1c-0.7,0.2-1.3,0.4-2,0.6c-0.6,0.2-1.3,0.4-1.9,0.7
							c-1.3,0.5-2.5,0.8-3.7,1.3c-2.4,1-4.6,1.8-6.4,2.7c-0.9,0.4-1.8,0.8-2.5,1.2s-1.4,0.7-1.9,1c-1.1,0.6-1.7,0.9-1.7,0.9
							l-26.8-49.9c0,0,0.9-0.5,2.5-1.3c0.8-0.4,1.8-0.9,2.9-1.5c1.1-0.5,2.4-1.1,3.9-1.8c2.8-1.4,6.2-2.7,9.8-4.1
							c1.8-0.7,3.7-1.3,5.7-2c1-0.3,1.9-0.7,2.9-1s2-0.6,3-0.9c2-0.6,4-1.2,6-1.7s4-0.9,5.8-1.4c1.9-0.5,3.8-0.7,5.5-1.1
							c1.8-0.3,3.4-0.7,5-0.9c3.1-0.4,5.7-0.8,7.5-1s2.8-0.2,2.8-0.2L471.7,154.3z"/>
					</g>
					<g>
						<line class="st8" x1="474.3" y1="104.5" x2="476" y2="141.6"/>
						<line class="st8" x1="474.3" y1="104.5" x2="476" y2="141.6"/>
						<path class="st9" d="M519.5,160.6c0,0-0.2-0.1-0.5-0.2c-0.3-0.1-0.7-0.3-1.3-0.5c-1.1-0.4-2.8-0.9-4.7-1.5
							c-3.9-1.1-9.2-2.5-14.6-3.3s-10.9-1.3-15-1.3c-1,0-2,0-2.8-0.1c-0.8,0-1.6,0.1-2.2,0.1c-1.2,0-1.9,0.1-1.9,0.1L474,97.3
							c0,0,1,0,2.9-0.1c0.9,0,2-0.1,3.3-0.1s2.7,0,4.2,0.1c6.2,0,14.5,0.7,22.7,1.9c8.2,1.2,16.3,3.3,22.3,5c3,1,5.4,1.8,7.2,2.4
							c0.9,0.3,1.5,0.6,2,0.7c0.5,0.2,0.7,0.3,0.7,0.3L519.5,160.6z"/>
					</g>
					<g>
						<line class="st8" x1="543.3" y1="116.8" x2="528.8" y2="151"/>
						<line class="st8" x1="543.3" y1="116.8" x2="528.8" y2="151"/>
						<path class="st9" d="M559.8,187c0,0-0.5-0.5-1.3-1.4s-2.1-2-3.6-3.4c-3.1-2.7-7.2-6.3-11.8-9.3c-4.5-3.1-9.2-5.9-12.9-7.6
							c-0.9-0.5-1.7-0.9-2.5-1.2s-1.4-0.6-2-0.9c-1.1-0.5-1.7-0.8-1.7-0.8l22.1-52.2c0,0,1,0.4,2.6,1.2c0.8,0.4,1.8,0.8,3,1.3
							s2.4,1.2,3.8,1.9c5.6,2.7,12.8,6.9,19.7,11.6c6.9,4.6,13.3,10,17.9,14.2c2.3,2.1,4.2,3.9,5.4,5.2c1.3,1.3,2,2,2,2L559.8,187z"
							/>
					</g>
					<g>
						<line class="st8" x1="600.1" y1="157.8" x2="572.3" y2="182.4"/>
						<line class="st8" x1="600.1" y1="157.8" x2="572.3" y2="182.4"/>
						<path class="st9" d="M584.8,228.2c0,0-0.2-0.6-0.6-1.8c-0.2-0.6-0.4-1.2-0.7-2s-0.7-1.6-1.1-2.6c-0.7-1.9-1.8-4.1-2.8-6.4
							c-0.5-1.2-1.2-2.3-1.8-3.5c-0.3-0.6-0.6-1.2-0.9-1.8l-1-1.8c-0.7-1.2-1.3-2.4-2.1-3.5c-0.7-1.1-1.5-2.2-2.2-3.3s-1.5-2-2.2-3
							c-0.3-0.5-0.7-0.9-1-1.4c-0.3-0.4-0.7-0.9-1-1.3c-1.3-1.6-2.3-3-3.1-3.8c-0.8-0.9-1.2-1.4-1.2-1.4l42.4-37.5
							c0,0,0.7,0.8,1.9,2.1s2.8,3.4,4.8,5.8c0.5,0.6,1,1.2,1.5,1.9s1,1.4,1.5,2.1c1,1.5,2.2,3,3.3,4.6s2.2,3.3,3.3,5
							s2.1,3.5,3.2,5.3c0.5,0.9,1,1.8,1.6,2.7c0.5,0.9,1,1.8,1.4,2.7c0.9,1.8,1.9,3.6,2.7,5.4c1.6,3.5,3.2,6.8,4.3,9.7
							c0.6,1.4,1.1,2.8,1.6,4c0.4,1.2,0.8,2.2,1.1,3.1c0.6,1.7,0.9,2.7,0.9,2.7L584.8,228.2z"/>
					</g>
					<g>
						<line class="st8" x1="633.8" y1="219.3" x2="598.1" y2="229.4"/>
						<line class="st8" x1="633.8" y1="219.3" x2="598.1" y2="229.4"/>
						<path class="st9" d="M589.3,274.5c0,0,0-0.2,0.1-0.5s0.1-0.7,0.2-1.3c0.1-0.5,0.2-1.2,0.3-1.9c0.1-0.7,0.2-1.5,0.2-2.2
							c0.1-1.1,0.1-3.8,0.2-6.3c0-1.3-0.1-2.6-0.1-4c0-0.7,0-1.4-0.1-2c0-0.7-0.1-1.4-0.2-2c-0.3-5.5-1.4-10.8-2.1-14.8
							c-0.5-2-0.9-3.6-1.2-4.8c-0.3-1.1-0.5-1.8-0.5-1.8l54.5-15.5c0,0,0.3,1,0.8,2.7c0.4,1.8,1,4.3,1.8,7.3
							c1.2,6.1,2.7,14.3,3.3,22.6c0.1,1,0.2,2.1,0.2,3.1s0.1,2.1,0.1,3.1c0,2,0.2,4.1,0.1,6c-0.1,3.9,0,7.2-0.4,11.3
							c-0.2,1.8-0.4,3.4-0.5,4.8c-0.2,1.3-0.4,2.5-0.5,3.5s-0.3,1.7-0.4,2.2c-0.1,0.5-0.1,0.8-0.1,0.8L589.3,274.5z"/>
					</g>
					<g>
						<line class="st8" x1="636.6" y1="290.4" x2="600.4" y2="282"/>
						<line class="st8" x1="636.6" y1="290.4" x2="600.4" y2="282"/>
						<path class="st9" d="M571.3,324.3c0,0,0.3-0.7,0.9-1.9c0.6-1.2,1.4-2.9,2.4-5c1.9-4.2,4.4-9.9,6.6-15.6
							c2.2-5.7,4.1-11.5,5.3-15.7c0.6-2.1,1.1-3.9,1.4-5c0.3-1.2,0.5-1.9,0.5-1.9l55.2,12.9c0,0-0.2,1-0.7,2.7
							c-0.4,1.7-1.1,4.1-1.9,7c-1.6,5.7-4.1,13.1-6.8,20.2s-5.7,14.1-8.2,19.3c-1.2,2.6-2.2,4.7-3,6.2c-0.7,1.5-1.2,2.4-1.2,2.4
							L571.3,324.3z"/>
					</g>
					<g>
						<line class="st8" x1="612.4" y1="352.5" x2="579.7" y2="335"/>
						<line class="st8" x1="612.4" y1="352.5" x2="579.7" y2="335"/>
						<path class="st9" d="M546,360c0,0,0.1-0.1,0.3-0.2c0.2-0.2,0.8-0.5,1.8-1.4c1.9-1.5,5.2-5.2,8.5-9.5s6.4-9.4,8.7-13.2
							c1.1-2,2.1-3.6,2.7-4.8c0.6-1.2,1-1.8,1-1.8l49.9,26.8c0,0-0.5,0.8-1.3,2.3s-2,3.6-3.5,6.1c-3,5.1-7.1,11.7-12.1,18.4
							c-5,6.7-10.8,13.4-16.9,18.6c-3,2.6-5.9,4.7-8.2,6.2c-2.4,1.5-3.8,2.3-3.8,2.3L546,360z"/>
					</g>
				</g>
			</g>
		</g>
	</g>
</g>
</svg>
